<svg id="Layer_1" data-name="Layer 1" xmlns="http://www.w3.org/2000/svg" width="176.23mm" height="62.57mm" viewBox="0 0 499.55 177.37"><defs><style>.cls-1{fill:#00a79d;}</style></defs><path class="cls-1" d="M299.12,68.34l.06.09v40.32l40.14,24.06c12.65-6.5,25.15-13.5,38-20.15l38.28,24.1c-25.69,13.3-50.69,27.3-76,40.3l-80.28-48.13V48.29l-.11-.18L339,.25,499.3,91.34l-40.18,21.32L339,44.41Z"/><path class="cls-1" d="M200,68.4,160.15,44.48h0L40.34,112.73.25,91.41,160.11.34l.53.28,78.13,47-.09.15V129.6l-79.09,47.52-43.22-23c-10.79-5.82-21.64-11.64-32.6-17.33L122,112.73l16.33,8.68c7.21,3.88,14.37,7.76,21.58,11.47l40-24.06V68.49Z"/><path class="cls-1" d="M138.29,121.41l21.58,11.47C152.66,129.17,145.5,125.29,138.29,121.41Z"/><path class="cls-1" d="M116.37,154.15l43.22,23C145.14,169.68,130.8,161.92,116.37,154.15Z"/><path class="cls-1" d="M138.29,121.41,122,112.73C127.45,115.58,132.89,118.5,138.29,121.41Z"/><path class="cls-1" d="M116.37,154.15l-32.6-17.33C94.73,142.51,105.58,148.33,116.37,154.15Z"/></svg>